<?xml version="1.0" encoding="UTF-8"?>
<svg id="Layer_1" xmlns="http://www.w3.org/2000/svg" version="1.1" viewBox="0 0 1987.4 3061.4">
  <!-- Generator: Adobe Illustrator 29.1.0, SVG Export Plug-In . SVG Version: 2.1.0 Build 142)  -->
  <defs>
    <style>
      .st0 {
        fill: none;
        stroke: #cfd1d2;
        stroke-miterlimit: 10;
        stroke-width: 12.1px;
      }
    </style>
  </defs>
  <g>
    <line class="st0" x1="949" y1="1508.6" x2="233.3" y2="1508.6"/>
    <line class="st0" x1="1754.2" y1="1508.6" x2="1038.5" y2="1508.6"/>
  </g>
  <g>
    <line class="st0" x1="958.2" y1="1544.2" x2="345.4" y2="2412.1"/>
    <line class="st0" x1="1642.1" y1="605.1" x2="1029.3" y2="1473.1"/>
  </g>
  <g>
    <line class="st0" x1="958.2" y1="1473.1" x2="345.4" y2="605.1"/>
    <line class="st0" x1="1642.1" y1="2412.1" x2="1029.3" y2="1544.2"/>
  </g>
  <g>
    <line class="st0" x1="993.7" y1="1553.4" x2="993.7" y2="2807.4"/>
    <line class="st0" x1="993.7" y1="254" x2="993.7" y2="1463.9"/>
  </g>
  <path class="st0" d="M993.7,80.3h0c497.9,0,901.5,403.6,901.5,901.5v1097.9c0,497.9-403.6,901.5-901.5,901.5h0c-497.9,0-901.4-403.6-901.4-901.5V981.8c0-497.9,403.6-901.5,901.4-901.5Z"/>
</svg>